<svg width="24" height="24" viewBox="0 0 24 24" fill="none" xmlns="http://www.w3.org/2000/svg">
<path d="M11.5 24H12.5C17.94 24 20.65 24 22.33 22.32C24 20.64 24 17.92 24 12.5V11.48C24 6.08 24 3.36 22.33 1.68C20.65 0 17.93 0 12.5 0H11.5C6.06 0 3.35 0 1.67 1.68C0 3.36 0 6.08 0 11.5V12.52C0 17.92 0 20.64 1.68 22.32C3.36 24 6.08 24 11.5 24Z" fill="#0077FF"/>
<path fill-rule="evenodd" clip-rule="evenodd" d="M4.52441 7.79688C4.65441 14.0369 7.77441 17.7869 13.2444 17.7869H13.5544V7.79688H10.9744V14.7169C9.37441 14.3169 7.35441 12.3769 7.26441 7.79688H4.52441Z" fill="white"/>
<path d="M14.8357 17.7969H13.0527L11.4746 7.79688H14.8635C15.8172 7.79688 16.6382 7.99707 17.3265 8.39746C18.0147 8.7946 18.5441 9.36589 18.9144 10.1113C19.2879 10.8568 19.4746 11.7487 19.4746 12.7871C19.4746 13.8288 19.2879 14.724 18.9144 15.4727C18.5441 16.2214 18.0116 16.7959 17.3172 17.1963C16.6258 17.5967 15.7987 17.7969 14.8357 17.7969ZM13.4792 15.9854H14.7524C15.345 15.9854 15.8434 15.8747 16.2478 15.6533C16.6552 15.4287 16.9607 15.082 17.1644 14.6133C17.3712 14.1413 17.4746 13.5326 17.4746 12.7871C17.4746 12.0482 17.3712 11.4443 17.1644 10.9756C16.9607 10.5068 16.6567 10.1618 16.2524 9.94043C15.8481 9.71908 15.3496 9.6084 14.757 9.6084H13.4792V15.9854Z" fill="white"/>
</svg>
