<svg width="123" height="24" viewBox="0 0 123 24" fill="none" xmlns="http://www.w3.org/2000/svg">
<g clip-path="url(#clip0_2414_1949)">
<path d="M12 24H13C18.44 24 21.15 24 22.83 22.32C24.5 20.64 24.5 17.92 24.5 12.5V11.48C24.5 6.08 24.5 3.36 22.83 1.68C21.15 0 18.43 0 13 0H12C6.56 0 3.85 0 2.17 1.68C0.5 3.36 0.5 6.08 0.5 11.5V12.52C0.5 17.92 0.5 20.64 2.18 22.32C3.86 24 6.58 24 12 24Z" fill="#0077FF"/>
<path fill-rule="evenodd" clip-rule="evenodd" d="M5.02441 7.79688C5.15441 14.0369 8.27441 17.7869 13.7444 17.7869H14.0544V7.79688H11.4744V14.7169C9.87441 14.3169 7.85441 12.3769 7.76441 7.79688H5.02441Z" fill="white"/>
<path d="M15.3357 17.7969H13.5527L11.9746 7.79688H15.3635C16.3172 7.79688 17.1382 7.99707 17.8265 8.39746C18.5147 8.7946 19.0441 9.36589 19.4144 10.1113C19.7879 10.8568 19.9746 11.7487 19.9746 12.7871C19.9746 13.8288 19.7879 14.724 19.4144 15.4727C19.0441 16.2214 18.5116 16.7959 17.8172 17.1963C17.1258 17.5967 16.2987 17.7969 15.3357 17.7969ZM13.9792 15.9854H15.2524C15.845 15.9854 16.3434 15.8747 16.7478 15.6533C17.1552 15.4287 17.4607 15.082 17.6644 14.6133C17.8712 14.1413 17.9746 13.5326 17.9746 12.7871C17.9746 12.0482 17.8712 11.4443 17.6644 10.9756C17.4607 10.5068 17.1567 10.1618 16.7524 9.94043C16.3481 9.71908 15.8496 9.6084 15.257 9.6084H13.9792V15.9854Z" fill="white"/>
<path d="M32.5866 17V7.18182H36.7734C37.9837 7.18182 38.9403 7.41193 39.6435 7.87216C40.3466 8.33239 40.6982 8.98651 40.6982 9.83452C40.6982 10.3672 40.5 10.8104 40.1037 11.1641C39.7074 11.5178 39.1577 11.7564 38.4545 11.88C39.0426 11.9226 39.5433 12.0568 39.9567 12.2827C40.3743 12.5043 40.6918 12.7919 40.9091 13.1456C41.1307 13.4993 41.2415 13.8913 41.2415 14.3217C41.2415 14.88 41.0923 15.3594 40.794 15.7599C40.5 16.1605 40.0675 16.4673 39.4964 16.6804C38.9297 16.8935 38.2372 17 37.419 17H32.5866ZM35.1243 14.9609H37.419C37.7983 14.9609 38.0945 14.8714 38.3075 14.6925C38.5249 14.5092 38.6335 14.2599 38.6335 13.9446C38.6335 13.5952 38.5249 13.3203 38.3075 13.12C38.0945 12.9197 37.7983 12.8196 37.419 12.8196H35.1243V14.9609ZM35.1243 11.2216H36.831C37.1037 11.2216 37.3359 11.1832 37.5277 11.1065C37.7237 11.0256 37.8729 10.9105 37.9751 10.7614C38.0817 10.6122 38.1349 10.4354 38.1349 10.2308C38.1349 9.92827 38.0135 9.69176 37.7706 9.52131C37.5277 9.35085 37.1953 9.26562 36.7734 9.26562H35.1243V11.2216ZM42.9107 19.8764V14.8395H43.665C43.8823 14.7031 44.057 14.4858 44.1891 14.1875C44.3255 13.8892 44.4363 13.5376 44.5215 13.1328C44.611 12.728 44.6792 12.2912 44.726 11.8224C44.7772 11.3494 44.8219 10.8722 44.8603 10.3906L45.116 7.18182H52.6458V14.8395H54.1671V19.8764H51.5719V17H45.5698V19.8764H42.9107ZM46.3752 14.8395H50.0762V9.27841H47.4299L47.3276 10.3906C47.2552 11.4389 47.1508 12.3295 47.0144 13.0625C46.878 13.7912 46.665 14.3835 46.3752 14.8395ZM60.9483 17.1918C59.9384 17.1918 59.0691 16.9872 58.3404 16.5781C57.616 16.1648 57.0577 15.581 56.6657 14.8267C56.2736 14.0682 56.0776 13.1712 56.0776 12.1357C56.0776 11.1257 56.2736 10.2393 56.6657 9.47656C57.0577 8.71378 57.6096 8.11932 58.3212 7.69318C59.0371 7.26705 59.8766 7.05398 60.8397 7.05398C61.4874 7.05398 62.0904 7.15838 62.6486 7.36719C63.2111 7.57173 63.7012 7.88068 64.1188 8.29403C64.5407 8.70739 64.8688 9.22727 65.1032 9.85369C65.3376 10.4759 65.4547 11.2045 65.4547 12.0398V12.7876H57.1643V11.1001H62.8915C62.8915 10.7081 62.8063 10.3608 62.6358 10.0582C62.4654 9.75568 62.2289 9.51918 61.9263 9.34872C61.628 9.17401 61.2807 9.08665 60.8844 9.08665C60.4711 9.08665 60.1046 9.18253 59.785 9.37429C59.4697 9.56179 59.2225 9.81534 59.0435 10.1349C58.8645 10.4503 58.7729 10.8018 58.7687 11.1896V12.794C58.7687 13.2798 58.8581 13.6996 59.0371 14.0533C59.2204 14.407 59.4782 14.6797 59.8106 14.8714C60.1429 15.0632 60.5371 15.1591 60.9931 15.1591C61.2956 15.1591 61.5726 15.1165 61.8241 15.0312C62.0755 14.946 62.2907 14.8182 62.4697 14.6477C62.6486 14.4773 62.785 14.2685 62.8787 14.0213L65.3972 14.1875C65.2694 14.7926 65.0073 15.321 64.611 15.7727C64.2189 16.2202 63.7118 16.5696 63.0897 16.821C62.4718 17.0682 61.758 17.1918 60.9483 17.1918ZM74.7848 11.0043V13.1456H69.6584V11.0043H74.7848ZM70.5533 7.18182V17H67.9517V7.18182H70.5533ZM76.4915 7.18182V17H73.9091V7.18182H76.4915ZM81.9256 13.4077L85.4604 7.18182H88.1451V17H85.5499V10.755L82.0279 17H79.3241V7.18182H81.9256V13.4077ZM95.4841 17.1918C94.4784 17.1918 93.6133 16.9787 92.8889 16.5526C92.1687 16.1222 91.6147 15.5256 91.227 14.7628C90.8434 14 90.6517 13.1222 90.6517 12.1293C90.6517 11.1236 90.8456 10.2415 91.2333 9.48295C91.6254 8.72017 92.1815 8.12571 92.9017 7.69957C93.6218 7.26918 94.4784 7.05398 95.4713 7.05398C96.3278 7.05398 97.0778 7.20952 97.7213 7.5206C98.3647 7.83168 98.874 8.26847 99.249 8.83097C99.624 9.39347 99.8306 10.054 99.869 10.8125H97.2994C97.227 10.3224 97.0352 9.92827 96.7241 9.62997C96.4173 9.32741 96.0146 9.17614 95.516 9.17614C95.0941 9.17614 94.7255 9.29119 94.4102 9.52131C94.0991 9.74716 93.8562 10.0774 93.6815 10.5121C93.5068 10.9467 93.4194 11.473 93.4194 12.0909C93.4194 12.7173 93.5047 13.25 93.6751 13.6889C93.8498 14.1278 94.0948 14.4624 94.4102 14.6925C94.7255 14.9226 95.0941 15.0376 95.516 15.0376C95.8271 15.0376 96.1062 14.9737 96.3534 14.8459C96.6048 14.718 96.8115 14.5327 96.9734 14.2898C97.1396 14.0426 97.2483 13.7464 97.2994 13.4013H99.869C99.8264 14.1513 99.6218 14.8118 99.2554 15.3828C98.8931 15.9496 98.3924 16.3928 97.7532 16.7124C97.114 17.032 96.3576 17.1918 95.4841 17.1918ZM102.332 17V7.18182H105.055V10.9915H105.822L108.494 7.18182H111.69L108.22 12.0526L111.729 17H108.494L106.072 13.5163H105.055V17H102.332ZM117.669 17.1918C116.659 17.1918 115.79 16.9872 115.061 16.5781C114.337 16.1648 113.779 15.581 113.387 14.8267C112.995 14.0682 112.799 13.1712 112.799 12.1357C112.799 11.1257 112.995 10.2393 113.387 9.47656C113.779 8.71378 114.331 8.11932 115.042 7.69318C115.758 7.26705 116.598 7.05398 117.561 7.05398C118.209 7.05398 118.811 7.15838 119.37 7.36719C119.932 7.57173 120.422 7.88068 120.84 8.29403C121.262 8.70739 121.59 9.22727 121.824 9.85369C122.059 10.4759 122.176 11.2045 122.176 12.0398V12.7876H113.885V11.1001H119.613C119.613 10.7081 119.527 10.3608 119.357 10.0582C119.186 9.75568 118.95 9.51918 118.647 9.34872C118.349 9.17401 118.002 9.08665 117.606 9.08665C117.192 9.08665 116.826 9.18253 116.506 9.37429C116.191 9.56179 115.944 9.81534 115.765 10.1349C115.586 10.4503 115.494 10.8018 115.49 11.1896V12.794C115.49 13.2798 115.579 13.6996 115.758 14.0533C115.941 14.407 116.199 14.6797 116.532 14.8714C116.864 15.0632 117.258 15.1591 117.714 15.1591C118.017 15.1591 118.294 15.1165 118.545 15.0312C118.797 14.946 119.012 14.8182 119.191 14.6477C119.37 14.4773 119.506 14.2685 119.6 14.0213L122.118 14.1875C121.99 14.7926 121.728 15.321 121.332 15.7727C120.94 16.2202 120.433 16.5696 119.811 16.821C119.193 17.0682 118.479 17.1918 117.669 17.1918Z" fill="white"/>
</g>
<defs>
<clipPath id="clip0_2414_1949">
<rect width="123" height="24" fill="white"/>
</clipPath>
</defs>
</svg>
